<svg xmlns="http://www.w3.org/2000/svg" viewBox="0 0 96 96" fill="none">
  <g stroke="#986b4b" stroke-width="2.2" stroke-linecap="round" stroke-linejoin="round">
    <ellipse cx="48" cy="80" rx="39" ry="10" fill="#fff9e9" stroke="#d7c5a5"/>
    <path d="M18 42v30c0 16 60 16 60 0V42Z" fill="#c39573"/>
    <path d="M18 53c11 12 49 12 60 0v9c-11 12-49 12-60 0Z" fill="#fff3d9" stroke="none"/>
    <ellipse cx="48" cy="42" rx="30" ry="13" fill="#95674e"/>
    <path d="M18 42v8c1 6 6 8 8 3 3-5 7-1 8 5 2 8 8 8 9-1 1-8 8-4 12-5 5-1 5 7 10 6 4-1 3-7 6-8 4 2 7-1 7-8" fill="#95674e" stroke="none"/>
    <path d="M37 32c-6-2-6-8 0-9-2-5 4-8 7-5 2-8 10-8 10-1 7-2 11 4 7 8 8 4-2 12-24 7Z" fill="#fff9e9" stroke="#c7ad86"/>
    <circle cx="48" cy="14" r="7" fill="#dca29a"/>
    <path d="M49 7c1-4 4-5 7-5" stroke="#91a77a"/>
    <path d="m27 69 1 4m42-8-1 4" stroke="#ebcba6" stroke-width="3"/>
    <path d="m28 39 4-2m29 3 4 1" stroke="#edcda4"/>
  </g>
</svg>
