<svg xmlns="http://www.w3.org/2000/svg" viewBox="0 0 96 96" fill="none">
  <g stroke="#a47a51" stroke-width="2.2" stroke-linecap="round" stroke-linejoin="round">
    <ellipse cx="48" cy="78" rx="38" ry="10" fill="#fff9e9" stroke="#d7c5a5"/>
    <path d="m29 34-9 38c-2 12 59 12 57 0l-9-38Z" fill="#f5d996"/>
    <path d="M29 34c0-9 39-9 39 0 0 10-39 10-39 0Z" fill="#c99668"/>
    <path d="M28 37c0 7 5 4 6 10 2 7 7 6 8-1 2-6 8-3 13-5 5 4 10 5 13-4" fill="#c99668" stroke="none"/>
    <path d="m29 60-2 9" stroke="#fff8e5" stroke-width="4"/>
    <path d="M39 29c-5-2-2-7 2-7-3-4 1-8 5-5 1-7 9-6 9 0 6-1 9 6 4 9 4 4-14 7-20 3Z" fill="#fffaf0" stroke="#ddcbaa"/>
    <circle cx="50" cy="13" r="6" fill="#dca29a"/>
    <path d="M51 7c0-4 2-6 5-7" stroke="#91a77a"/>
  </g>
</svg>
